<mxfile host="app.diagrams.net" agent="Mozilla/5.0 (X11; Linux x86_64) AppleWebKit/537.36 (KHTML, like Gecko) Chrome/128.0.0.0 Safari/537.36" version="24.7.13">
  <diagram name="Page-1" id="ieKqds4D3icMPUcfzQ8N">
    <mxGraphModel dx="3360" dy="-1116" grid="0" gridSize="10" guides="1" tooltips="1" connect="1" arrows="1" fold="1" page="0" pageScale="1" pageWidth="850" pageHeight="1100" math="0" shadow="0">
      <root>
        <mxCell id="0" />
        <mxCell id="1" parent="0" />
        <mxCell id="oeUzojhHNhMkXYqDH8_7-2" value="Jenkins" style="ellipse;whiteSpace=wrap;html=1;aspect=fixed;sketch=1;hachureGap=4;jiggle=2;curveFitting=1;fontFamily=Architects Daughter;fontSource=https%3A%2F%2Ffonts.googleapis.com%2Fcss%3Ffamily%3DArchitects%2BDaughter;fontSize=20;" parent="1" vertex="1">
          <mxGeometry x="-1192" y="2448" width="80" height="80" as="geometry" />
        </mxCell>
        <mxCell id="oeUzojhHNhMkXYqDH8_7-3" value="" style="editableCssRules=.*;html=1;shape=image;verticalLabelPosition=bottom;labelBackgroundColor=#ffffff;verticalAlign=top;aspect=fixed;imageAspect=0;image=data:image/svg+xml,PHN2ZyB4bWxucz0iaHR0cDovL3d3dy53My5vcmcvMjAwMC9zdmciIHhtbG5zOnY9Imh0dHBzOi8vdmVjdGEuaW8vbmFubyIgd2lkdGg9IjcwMi44NDYzMTM0NzY1NjI1IiBoZWlnaHQ9IjY4MS45NjcxMDIwNTA3ODEyIiB2aWV3Qm94PSIxMC4wMDEwMjYxNTM1NjQ0NTMgMTAuMDAwOTMzNjQ3MTU1NzYyIDcwMi44NDYzMTM0NzY1NjI1IDY4MS45NjcxMDIwNTA3ODEyIj4mI3hhOwk8c3R5bGUgdHlwZT0idGV4dC9jc3MiPiYjeGE7CS5zdDB7ZmlsbDojMzI2Y2U1O30mI3hhOwkuc3Qxe2ZpbGw6I2ZmZjt9JiN4YTsJPC9zdHlsZT4mI3hhOwk8cGF0aCBjbGFzcz0ic3QwIiBkPSJNMzU4Ljk4NyAxMC4wNmMtNi4yMTMuMzEzLTEyLjMwMSAxLjg1NC0xNy45MDYgNC41MzFMOTYuNzM3IDEzMS4zNDJjLTEyLjgxMSA2LjExOC0yMi4xMTYgMTcuNjg5LTI1LjI4MSAzMS40MzhsLTYwLjI4MSAyNjIuMjVjLTIuODEyIDEyLjIwNy0uNTI0IDI1LjAyNCA2LjM0NCAzNS41MzFhNDYuMzUgNDYuMzUgMCAwIDAgMi42NTYgMy42ODhsMTY5LjEyNSAyMTAuMjgxYzguODY4IDExLjAyMiAyMi4zMTMgMTcuNDQgMzYuNTMxIDE3LjQzOGwyNzEuMjE5LS4wNjJjMTQuMjEyLjAxIDI3LjY1Ny02LjM5NiAzNi41MzEtMTcuNDA2bDE2OS4wNjMtMjEwLjMxM2M4Ljg3My0xMS4wMjggMTIuMTk3LTI1LjQ2NCA5LjAzMS0zOS4yMTlsLTYwLjM3NS0yNjIuMjVjLTMuMTY1LTEzLjc0OC0xMi40Ny0yNS4zMTktMjUuMjgxLTMxLjQzN0wzODEuNjQzIDE0LjU5MmMtNy4wNS0zLjM2OC0xNC44NDEtNC45MjYtMjIuNjU2LTQuNTMxeiIvPiYjeGE7CTxwYXRoIGNsYXNzPSJzdDEgc3QyIiBkPSJNMzYxLjQwOCA5OS4zMDhjLTguMDc3LjAwMS0xNC42MjYgNy4yNzYtMTQuNjI1IDE2LjI1IDAgLjEzOC4wMjguMjY5LjAzMS40MDYtLjAxMiAxLjIxOS0uMDcxIDIuNjg4LS4wMzEgMy43NS4xOTMgNS4xNzYgMS4zMjEgOS4xMzcgMiAxMy45MDYgMS4yMyAxMC4yMDcgMi4yNjEgMTguNjY3IDEuNjI1IDI2LjUzMS0uNjE5IDIuOTY1LTIuODAzIDUuNjc3LTQuNzUgNy41NjNsLS4zNDQgNi4xODhjLTguNzc3LjcyNy0xNy42MTIgMi4wNTktMjYuNDM3IDQuMDYzLTM3Ljk3NSA4LjYyMi03MC42NyAyOC4xODMtOTUuNTYyIDU0LjU5NC0xLjYxNS0xLjEwMi00LjQ0MS0zLjEyOS01LjI4MS0zLjc1LTIuNjExLjM1My01LjI1IDEuMTU4LTguNjg3LS44NDQtNi41NDUtNC40MDYtMTIuNTA2LTEwLjQ4Ny0xOS43MTktMTcuODEyLTMuMzA1LTMuNTA0LTUuNjk4LTYuODQxLTkuNjI1LTEwLjIxOS0uODkyLS43NjctMi4yNTMtMS44MDUtMy4yNS0yLjU5NC0zLjA3LTIuNDQ4LTYuNjkxLTMuNzI0LTEwLjE4Ny0zLjg0NC00LjQ5Ni0uMTU0LTguODI0IDEuNjA0LTExLjY1NiA1LjE1Ni01LjAzNSA2LjMxNS0zLjQyMyAxNS45NjggMy41OTQgMjEuNTYzLjA3MS4wNTcuMTQ3LjEwMS4yMTkuMTU2Ljk2NC43ODIgMi4xNDUgMS43ODMgMy4wMzEgMi40MzggNC4xNjcgMy4wNzcgNy45NzMgNC42NTEgMTIuMTI1IDcuMDk0IDguNzQ3IDUuNDAyIDE1Ljk5OCA5Ljg4MSAyMS43NSAxNS4yODEgMi4yNDYgMi4zOTQgMi42MzkgNi42MTMgMi45MzggOC40MzhsNC42ODggNC4xODhjLTI1LjA5MyAzNy43NjQtMzYuNzA3IDg0LjQwOS0yOS44NDQgMTMxLjkzOGwtNi4xMjUgMS43ODFjLTEuNjE0IDIuMDg1LTMuODk1IDUuMzY1LTYuMjgxIDYuMzQ0LTcuNTI1IDIuMzctMTUuOTk0IDMuMjQxLTI2LjIxOSA0LjMxMy00LjguMzk5LTguOTQyLjE2MS0xNC4wMzEgMS4xMjUtMS4xMi4yMTItMi42ODEuNjE5LTMuOTA2LjkwNi0uMDQzLjAwOS0uMDgyLjAyMi0uMTI1LjAzMS0uMDY3LjAxNS0uMTU1LjA0OC0uMjE5LjA2My04LjYyIDIuMDgzLTE0LjE1OCAxMC4wMDYtMTIuMzc1IDE3LjgxM3MxMC4yMDMgMTIuNTU3IDE4Ljg3NSAxMC42ODhjLjA2My0uMDE0LjE1NC0uMDE3LjIxOS0uMDMxLjA5OC0uMDIyLjE4NC0uMDcuMjgxLS4wOTQgMS4yMDktLjI2NSAyLjcyNC0uNTYxIDMuNzgxLS44NDQgNS4wMDMtMS4zNCA4LjYyNy0zLjMwOCAxMy4xMjUtNS4wMzEgOS42NzctMy40NzEgMTcuNjkyLTYuMzcgMjUuNS03LjUgMy4yNjEtLjI1NSA2LjY5NyAyLjAxMiA4LjQwNiAyLjk2OWw2LjM3NS0xLjA5NGMxNC42NyA0NS40ODMgNDUuNDE0IDgyLjI0NSA4NC4zNDQgMTA1LjMxMmwtMi42NTYgNi4zNzVjLjk1NyAyLjQ3NSAyLjAxMyA1LjgyNSAxLjMgOC4yNjktMi44MzkgNy4zNjEtNy43MDEgMTUuMTMxLTEzLjIzOCAyMy43OTMtMi42ODEgNC4wMDItNS40MjUgNy4xMDgtNy44NDQgMTEuNjg4LS41NzkgMS4wOTYtMS4zMTYgMi43NzktMS44NzUgMy45MzgtMy43NTkgOC4wNDItMS4wMDIgMTcuMzA1IDYuMjE5IDIwLjc4MSA3LjI2NiAzLjQ5OCAxNi4yODQtLjE5MSAyMC4xODctOC4yNS4wMDYtLjAxMS4wMjYtLjAyLjAzMS0uMDMxcy0uMDA0LS4wMjMgMC0uMDMxYy41NTYtMS4xNDMgMS4zNDQtMi42NDQgMS44MTMtMy43MTkgMi4wNzItNC43NDcgMi43NjItOC44MTUgNC4yMTktMTMuNDA2IDMuODctOS43MiA1Ljk5Ni0xOS45MTkgMTEuMzIzLTI2LjI3NCAxLjQ1OS0xLjc0IDMuODM3LTIuNDA5IDYuMzAyLTMuMDdsMy4zMTMtNmMzMy45MzggMTMuMDI3IDcxLjkyNyAxNi41MjIgMTA5Ljg3NSA3LjkwNmExODkuNzcgMTg5Ljc3IDAgMCAwIDI1LjA5NC03LjU2MmwzLjEyNSA1LjYyNWMyLjUwNi44MTUgNS4yNCAxLjIzNiA3LjQ2OSA0LjUzMSAzLjk4NSA2LjgwOSA2LjcxMSAxNC44NjQgMTAuMDMxIDI0LjU5NCAxLjQ1NyA0LjU5MSAyLjE3OCA4LjY1OSA0LjI1IDEzLjQwNi40NzIgMS4wODIgMS4yNTYgMi42MDUgMS44MTMgMy43NSAzLjg5NSA4LjA4NSAxMi45NDIgMTEuNzg3IDIwLjIxOSA4LjI4MSA3LjIxOS0zLjQ3OCA5Ljk4LTEyLjc0IDYuMjE5LTIwLjc4MWwtMS45MDYtMy45MzdjLTIuNDE5LTQuNTgtNS4xNjMtNy42NTQtNy44NDQtMTEuNjU2LTUuNTM3LTguNjYyLTEwLjEzLTE1Ljg1OC0xMi45NjktMjMuMjE5LTEuMTg3LTMuNzk3LjItNi4xNTggMS4xMjUtOC42MjUtLjU1NC0uNjM1LTEuNzM5LTQuMjItMi40MzctNS45MDYgNDAuNDU3LTIzLjg4OCA3MC4yOTktNjIuMDIxIDg0LjMxMy0xMDYuMDYyIDEuODkyLjI5NyA1LjE4Mi44NzkgNi4yNSAxLjA5NCAyLjItMS40NTEgNC4yMjItMy4zNDQgOC4xODgtMy4wMzEgNy44MDggMS4xMjkgMTUuODIzIDQuMDMgMjUuNSA3LjUgNC40OTggMS43MjMgOC4xMjIgMy43MjMgMTMuMTI1IDUuMDYzIDEuMDU3LjI4MyAyLjU3Mi41NDcgMy43ODEuODEzLjA5Ny4wMjQuMTgzLjA3MS4yODEuMDk0LjA2NS4wMTUuMTU2LjAxNy4yMTkuMDMxIDguNjcyIDEuODY3IDE3LjA5NC0yLjg3OSAxOC44NzUtMTAuNjg3cy0zLjc1NC0xNS43MzItMTIuMzc1LTE3LjgxMmMtMS4yNTQtLjI4NS0zLjAzMi0uNzY5LTQuMjUtMS01LjA4OS0uOTY0LTkuMjMxLS43MjYtMTQuMDMxLTEuMTI1LTEwLjIyNS0xLjA3MS0xOC42OTMtMS45NDMtMjYuMjE5LTQuMzEyLTMuMDY4LTEuMTktNS4yNTEtNC44NDEtNi4zMTMtNi4zNDRsLTUuOTA2LTEuNzE5YzMuMDYyLTIyLjE1NCAyLjIzNy00NS4yMTEtMy4wNjItNjguMjgxLTUuMzQ4LTIzLjI4NS0xNC44LTQ0LjU4MS0yNy40MDYtNjMuMzQ0bDUuMTg4LTQuNjU2Yy4yMzctMi42MjQuMDMzLTUuMzc2IDIuNzUtOC4yODEgNS43NTEtNS40MDEgMTMuMDAzLTkuODc5IDIxLjc1LTE1LjI4MSA0LjE1Mi0yLjQ0MyA3Ljk5LTQuMDE3IDEyLjE1Ni03LjA5NC45NDItLjY5NiAyLjIyOS0xLjc5OCAzLjIxOS0yLjU5NCA3LjAxNS01LjU5NiA4LjYzMS0xNS4yNDggMy41OTQtMjEuNTYycy0xNC43OTctNi45MDktMjEuODEyLTEuMzEyYy0uOTk5Ljc5MS0yLjM1NCAxLjgyMy0zLjI1IDIuNTk0LTMuOTI3IDMuMzc4LTYuMzUxIDYuNzE0LTkuNjU2IDEwLjIxOS03LjIxMiA3LjMyNi0xMy4xNzQgMTMuNDM4LTE5LjcxOSAxNy44NDQtMi44MzYgMS42NTEtNi45OSAxLjA4LTguODc1Ljk2OWwtNS41NjIgMy45NjljLTMxLjcxOS0zMy4yNjEtNzQuOTA1LTU0LjUyNS0xMjEuNDA2LTU4LjY1NmwtLjM0NC02LjUzMWMtMS45MDQtMS44MjItNC4yMDMtMy4zNzctNC43ODEtNy4zMTItLjYzNi03Ljg2NC40MjYtMTYuMzI1IDEuNjU2LTI2LjUzMS42NzktNC43NjkgMS44MDctOC43MyAyLTEzLjkwNi4wNDQtMS4xNzctLjAyNi0yLjg4NC0uMDMxLTQuMTU2LS4wMDEtOC45NzQtNi41NDgtMTYuMjUxLTE0LjYyNS0xNi4yNXptLTE4LjMxMiAxMTMuNDM4bC00LjM0NCA3Ni43MTktLjMxMi4xNTZjLS4yOTEgNi44NjMtNS45NCAxMi4zNDQtMTIuODc1IDEyLjM0NGExMi44MiAxMi44MiAwIDAgMS03LjU5NC0yLjQ2OWwtLjEyNS4wNjMtNjIuOTA2LTQ0LjU5NGMxOS4zMzQtMTkuMDExIDQ0LjA2My0zMy4wNiA3Mi41NjItMzkuNTMxIDUuMjA2LTEuMTgyIDEwLjQxLTIuMDU5IDE1LjU5NC0yLjY4N3ptMzYuNjU2IDBjMzMuMjczIDQuMDkyIDY0LjA0NSAxOS4xNTkgODcuNjI1IDQyLjI1bC02Mi41IDQ0LjMxMy0uMjE5LS4wOTRhMTIuOTEgMTIuOTEgMCAwIDEtMTcuNjg3LTIuMzc1Yy0xLjc3MS0yLjIyMS0yLjcwMS00LjgzMi0yLjgxMi03LjQ2OWwtLjA2Mi0uMDMxek0yMzIuMTI2IDI4My42Mmw1Ny40MzcgNTEuMzc1LS4wNjIuMzEzYTEyLjg4IDEyLjg4IDAgMCAxIDEuNjI1IDE3Ljc1IDEyLjg5IDEyLjg5IDAgMCAxLTYuNjg3IDQuNDA2bC0uMDYyLjI1LTczLjYyNSAyMS4yNWMtMy43NDctMzQuMjY1IDQuMzI5LTY3LjU3NCAyMS4zNzUtOTUuMzQ0em0yNTguMTU2LjAzMWM4LjUzNCAxMy44MzMgMTQuOTk3IDI5LjI4MiAxOC44NDQgNDYuMDMxIDMuODAxIDE2LjU0OCA0Ljc1NSAzMy4wNjcgMy4xODggNDkuMDMxbC03NC0yMS4zMTItLjA2Mi0uMzEyYy02LjYyNy0xLjgxMS0xMC42OTktOC41NTItOS4xNTYtMTUuMzEyLjYzMi0yLjc3IDIuMTAyLTUuMTEzIDQuMDk0LTYuODQ0bC0uMDMxLS4xNTYgNTcuMTI1LTUxLjEyNXptLTE0MC42NTYgNTUuMzEzaDIzLjUzMWwxNC42MjUgMTguMjgxLTUuMjUgMjIuODEzLTIxLjEyNSAxMC4xNTYtMjEuMTg3LTEwLjE4Ny01LjI1LTIyLjgxMnptNzUuNDM4IDYyLjU2M2ExMi44MyAxMi44MyAwIDAgMSAyLjk2OS4yMTlsLjEyNS0uMTU2IDc2LjE1NiAxMi44NzVjLTExLjE0NiAzMS4zMTMtMzIuNDczIDU4LjQ0LTYwLjk2OSA3Ni41OTRsLTI5LjU2Mi03MS40MDYuMDk0LS4xMjVjLTIuNzE2LTYuMzEuMDAyLTEzLjcxIDYuMjUtMTYuNzE5IDEuNi0uNzcgMy4yNzEtMS4xOTcgNC45MzgtMS4yODF6bS0xMjcuOTA2LjMxM2ExMi45IDEyLjkgMCAwIDEgMTIuMzc1IDEwLjAzMSAxMi43NyAxMi43NyAwIDAgMS0uNzE5IDcuOTM4bC4yMTkuMjgxLTI5LjI1IDcwLjY4OGMtMjcuMzQ3LTE3LjU0OS00OS4xMjktNDMuODI0LTYwLjc4MS03Ni4wNjJsNzUuNS0xMi44MTIuMTI1LjE1NmMuODQ1LS4xNTUgMS43MDEtLjIzIDIuNTMxLS4yMTl6bTYzLjc4MSAzMC45NjljMi4wMjQtLjA3NCA0LjA3OS4zNDEgNi4wMzEgMS4yODEgMi41NiAxLjIzMyA0LjUzNyAzLjE3MyA1Ljc4MSA1LjVoLjI4MWwzNy4yMTkgNjcuMjVjLTQuODMgMS42MTktOS43OTYgMy4wMDMtMTQuODc1IDQuMTU2LTI4LjQ2NSA2LjQ2My01Ni44MzkgNC41MDUtODIuNTMxLTQuMjVsMzcuMTI1LTY3LjEyNWguMDYzYTEyLjkxIDEyLjkxIDAgMCAxIDEwLjkwNi02LjgxMnoiIHN0cm9rZT0ibm9uZSIgc3Ryb2tlLXdpZHRoPSIuMjUiLz4mI3hhOzwvc3ZnPg==;fontColor=default;sketch=1;hachureGap=4;jiggle=2;curveFitting=1;fontFamily=Architects Daughter;fontSource=https%3A%2F%2Ffonts.googleapis.com%2Fcss%3Ffamily%3DArchitects%2BDaughter;fontSize=20;" parent="1" vertex="1">
          <mxGeometry x="-204" y="2450" width="84.21" height="80" as="geometry" />
        </mxCell>
        <mxCell id="oeUzojhHNhMkXYqDH8_7-7" style="edgeStyle=orthogonalEdgeStyle;rounded=0;sketch=1;hachureGap=4;jiggle=2;curveFitting=1;orthogonalLoop=1;jettySize=auto;html=1;fontFamily=Architects Daughter;fontSource=https%3A%2F%2Ffonts.googleapis.com%2Fcss%3Ffamily%3DArchitects%2BDaughter;fontSize=16;" parent="1" source="oeUzojhHNhMkXYqDH8_7-5" target="oeUzojhHNhMkXYqDH8_7-2" edge="1">
          <mxGeometry relative="1" as="geometry" />
        </mxCell>
        <mxCell id="oeUzojhHNhMkXYqDH8_7-5" value="" style="shape=image;html=1;verticalAlign=top;verticalLabelPosition=bottom;labelBackgroundColor=#ffffff;imageAspect=0;aspect=fixed;image=https://cdn0.iconfinder.com/data/icons/social-media-2127/48/social_media_social_media_logo_git-128.png;sketch=1;hachureGap=4;jiggle=2;curveFitting=1;fontFamily=Architects Daughter;fontSource=https%3A%2F%2Ffonts.googleapis.com%2Fcss%3Ffamily%3DArchitects%2BDaughter;fontSize=20;" parent="1" vertex="1">
          <mxGeometry x="-1398" y="2424" width="128" height="128" as="geometry" />
        </mxCell>
        <mxCell id="oeUzojhHNhMkXYqDH8_7-8" value="Webhook" style="text;html=1;strokeColor=none;fillColor=none;align=center;verticalAlign=middle;whiteSpace=wrap;rounded=0;fontSize=20;fontFamily=Architects Daughter;" parent="1" vertex="1">
          <mxGeometry x="-1270" y="2455" width="60" height="30" as="geometry" />
        </mxCell>
        <mxCell id="oeUzojhHNhMkXYqDH8_7-81" style="edgeStyle=orthogonalEdgeStyle;rounded=0;sketch=1;hachureGap=4;jiggle=2;curveFitting=1;orthogonalLoop=1;jettySize=auto;html=1;fontFamily=Architects Daughter;fontSource=https%3A%2F%2Ffonts.googleapis.com%2Fcss%3Ffamily%3DArchitects%2BDaughter;fontSize=16;" parent="1" edge="1">
          <mxGeometry relative="1" as="geometry">
            <mxPoint x="-299" y="2376.529411764706" as="targetPoint" />
            <mxPoint x="-299" y="2458" as="sourcePoint" />
          </mxGeometry>
        </mxCell>
        <mxCell id="oeUzojhHNhMkXYqDH8_7-80" style="edgeStyle=orthogonalEdgeStyle;rounded=0;sketch=1;hachureGap=4;jiggle=2;curveFitting=1;orthogonalLoop=1;jettySize=auto;html=1;fontFamily=Architects Daughter;fontSource=https%3A%2F%2Ffonts.googleapis.com%2Fcss%3Ffamily%3DArchitects%2BDaughter;fontSize=16;" parent="1" source="oeUzojhHNhMkXYqDH8_7-26" edge="1">
          <mxGeometry relative="1" as="geometry">
            <mxPoint x="-857.5" y="2545.9411764705883" as="targetPoint" />
          </mxGeometry>
        </mxCell>
        <mxCell id="oeUzojhHNhMkXYqDH8_7-82" style="edgeStyle=orthogonalEdgeStyle;rounded=0;sketch=1;hachureGap=4;jiggle=2;curveFitting=1;orthogonalLoop=1;jettySize=auto;html=1;fontFamily=Architects Daughter;fontSource=https%3A%2F%2Ffonts.googleapis.com%2Fcss%3Ffamily%3DArchitects%2BDaughter;fontSize=16;" parent="1" source="oeUzojhHNhMkXYqDH8_7-26" edge="1">
          <mxGeometry relative="1" as="geometry">
            <mxPoint x="-758.0588235294117" y="2488" as="targetPoint" />
          </mxGeometry>
        </mxCell>
        <mxCell id="oeUzojhHNhMkXYqDH8_7-26" value="SonarQube" style="shape=parallelogram;perimeter=parallelogramPerimeter;whiteSpace=wrap;html=1;fixedSize=1;sketch=1;hachureGap=4;jiggle=2;curveFitting=1;fontFamily=Architects Daughter;fontSource=https%3A%2F%2Ffonts.googleapis.com%2Fcss%3Ffamily%3DArchitects%2BDaughter;fontSize=20;" parent="1" vertex="1">
          <mxGeometry x="-924" y="2458" width="133" height="60" as="geometry" />
        </mxCell>
        <mxCell id="oeUzojhHNhMkXYqDH8_7-60" style="edgeStyle=orthogonalEdgeStyle;rounded=0;sketch=1;hachureGap=4;jiggle=2;curveFitting=1;orthogonalLoop=1;jettySize=auto;html=1;entryX=0.5;entryY=0;entryDx=0;entryDy=0;fontFamily=Architects Daughter;fontSource=https%3A%2F%2Ffonts.googleapis.com%2Fcss%3Ffamily%3DArchitects%2BDaughter;fontSize=16;" parent="1" source="oeUzojhHNhMkXYqDH8_7-30" target="oeUzojhHNhMkXYqDH8_7-32" edge="1">
          <mxGeometry relative="1" as="geometry" />
        </mxCell>
        <mxCell id="oeUzojhHNhMkXYqDH8_7-30" value="No" style="ellipse;whiteSpace=wrap;html=1;sketch=1;hachureGap=4;jiggle=2;curveFitting=1;fontFamily=Architects Daughter;fontSource=https%3A%2F%2Ffonts.googleapis.com%2Fcss%3Ffamily%3DArchitects%2BDaughter;fontSize=20;" parent="1" vertex="1">
          <mxGeometry x="-1047" y="2567" width="58" height="34" as="geometry" />
        </mxCell>
        <mxCell id="oeUzojhHNhMkXYqDH8_7-57" style="edgeStyle=orthogonalEdgeStyle;rounded=0;sketch=1;hachureGap=4;jiggle=2;curveFitting=1;orthogonalLoop=1;jettySize=auto;html=1;fontFamily=Architects Daughter;fontSource=https%3A%2F%2Ffonts.googleapis.com%2Fcss%3Ffamily%3DArchitects%2BDaughter;fontSize=16;strokeWidth=1;" parent="1" edge="1">
          <mxGeometry relative="1" as="geometry">
            <mxPoint x="-594" y="2827" as="targetPoint" />
            <mxPoint x="-794" y="2743.998235294118" as="sourcePoint" />
            <Array as="points">
              <mxPoint x="-594" y="2744" />
              <mxPoint x="-594" y="2790" />
            </Array>
          </mxGeometry>
        </mxCell>
        <mxCell id="oeUzojhHNhMkXYqDH8_7-32" value="Report" style="shape=umlState;rounded=1;verticalAlign=middle;spacingTop=0;absoluteArcSize=1;arcSize=10;umlStateConnection=connPointRefExit;boundedLbl=1;whiteSpace=wrap;html=1;sketch=1;hachureGap=4;jiggle=2;curveFitting=1;fontFamily=Architects Daughter;fontSource=https%3A%2F%2Ffonts.googleapis.com%2Fcss%3Ffamily%3DArchitects%2BDaughter;fontSize=20;" parent="1" vertex="1">
          <mxGeometry x="-927.5" y="2720" width="140" height="50" as="geometry" />
        </mxCell>
        <mxCell id="oeUzojhHNhMkXYqDH8_7-33" value="Exit1" style="text;verticalAlign=middle;align=center;whiteSpace=wrap;html=1;fontSize=20;fontFamily=Architects Daughter;" parent="oeUzojhHNhMkXYqDH8_7-32" vertex="1">
          <mxGeometry x="-40" y="40" width="50" height="20" as="geometry" />
        </mxCell>
        <mxCell id="oeUzojhHNhMkXYqDH8_7-37" value="" style="html=1;verticalLabelPosition=bottom;align=center;labelBackgroundColor=#ffffff;verticalAlign=top;strokeWidth=2;strokeColor=#0080F0;shadow=0;dashed=0;shape=mxgraph.ios7.icons.mail;sketch=1;hachureGap=4;jiggle=2;curveFitting=1;fontFamily=Architects Daughter;fontSource=https%3A%2F%2Ffonts.googleapis.com%2Fcss%3Ffamily%3DArchitects%2BDaughter;fontSize=20;" parent="1" vertex="1">
          <mxGeometry x="-576.5" y="2856" width="30" height="16.5" as="geometry" />
        </mxCell>
        <mxCell id="oeUzojhHNhMkXYqDH8_7-38" value="" style="outlineConnect=0;dashed=0;verticalLabelPosition=bottom;verticalAlign=top;align=center;html=1;shape=mxgraph.aws3.workmail;fillColor=#D16A28;gradientColor=#F58435;gradientDirection=north;sketch=1;hachureGap=4;jiggle=2;curveFitting=1;fontFamily=Architects Daughter;fontSource=https%3A%2F%2Ffonts.googleapis.com%2Fcss%3Ffamily%3DArchitects%2BDaughter;fontSize=20;" parent="1" vertex="1">
          <mxGeometry x="-628.71" y="2829.75" width="42.23" height="65" as="geometry" />
        </mxCell>
        <mxCell id="oeUzojhHNhMkXYqDH8_7-40" value="&lt;div&gt;Source&lt;/div&gt;&lt;div&gt;Code&lt;br&gt;&lt;/div&gt;" style="text;html=1;strokeColor=none;fillColor=none;align=center;verticalAlign=middle;whiteSpace=wrap;rounded=0;fontSize=20;fontFamily=Architects Daughter;" parent="1" vertex="1">
          <mxGeometry x="-1364" y="2545" width="60" height="30" as="geometry" />
        </mxCell>
        <mxCell id="oeUzojhHNhMkXYqDH8_7-41" style="edgeStyle=orthogonalEdgeStyle;rounded=0;sketch=1;hachureGap=4;jiggle=2;curveFitting=1;orthogonalLoop=1;jettySize=auto;html=1;exitX=0.5;exitY=1;exitDx=0;exitDy=0;fontFamily=Architects Daughter;fontSource=https%3A%2F%2Ffonts.googleapis.com%2Fcss%3Ffamily%3DArchitects%2BDaughter;fontSize=16;" parent="1" source="oeUzojhHNhMkXYqDH8_7-40" target="oeUzojhHNhMkXYqDH8_7-40" edge="1">
          <mxGeometry relative="1" as="geometry" />
        </mxCell>
        <mxCell id="oeUzojhHNhMkXYqDH8_7-42" value="" style="shape=image;html=1;verticalAlign=top;verticalLabelPosition=bottom;labelBackgroundColor=#ffffff;imageAspect=0;aspect=fixed;image=https://cdn0.iconfinder.com/data/icons/social-media-2127/48/social_media_social_media_logo_git-128.png;sketch=1;hachureGap=4;jiggle=2;curveFitting=1;fontFamily=Architects Daughter;fontSource=https%3A%2F%2Ffonts.googleapis.com%2Fcss%3Ffamily%3DArchitects%2BDaughter;fontSize=20;" parent="1" vertex="1">
          <mxGeometry x="-358.5" y="2222" width="113" height="113" as="geometry" />
        </mxCell>
        <mxCell id="oeUzojhHNhMkXYqDH8_7-46" value="&lt;div&gt;Manifests &lt;br&gt;&lt;/div&gt;&lt;div&gt;Repo&lt;br&gt;&lt;/div&gt;" style="text;html=1;align=center;verticalAlign=middle;whiteSpace=wrap;rounded=0;fontSize=20;fontFamily=Architects Daughter;" parent="1" vertex="1">
          <mxGeometry x="-332" y="2335" width="60" height="30" as="geometry" />
        </mxCell>
        <mxCell id="oeUzojhHNhMkXYqDH8_7-65" value="Yes" style="ellipse;whiteSpace=wrap;html=1;sketch=1;hachureGap=4;jiggle=2;curveFitting=1;fontFamily=Architects Daughter;fontSource=https%3A%2F%2Ffonts.googleapis.com%2Fcss%3Ffamily%3DArchitects%2BDaughter;fontSize=20;" parent="1" vertex="1">
          <mxGeometry x="-957" y="2437" width="43" height="29" as="geometry" />
        </mxCell>
        <mxCell id="oeUzojhHNhMkXYqDH8_7-70" value="" style="edgeStyle=orthogonalEdgeStyle;rounded=0;sketch=1;hachureGap=4;jiggle=2;curveFitting=1;orthogonalLoop=1;jettySize=auto;html=1;fontFamily=Architects Daughter;fontSource=https%3A%2F%2Ffonts.googleapis.com%2Fcss%3Ffamily%3DArchitects%2BDaughter;fontSize=16;endArrow=none;" parent="1" source="oeUzojhHNhMkXYqDH8_7-2" target="oeUzojhHNhMkXYqDH8_7-52" edge="1">
          <mxGeometry relative="1" as="geometry">
            <mxPoint x="-909" y="2575" as="targetPoint" />
            <mxPoint x="-1112" y="2488" as="sourcePoint" />
          </mxGeometry>
        </mxCell>
        <mxCell id="oeUzojhHNhMkXYqDH8_7-71" style="edgeStyle=orthogonalEdgeStyle;rounded=0;sketch=1;hachureGap=4;jiggle=2;curveFitting=1;orthogonalLoop=1;jettySize=auto;html=1;entryX=0;entryY=0.5;entryDx=0;entryDy=0;fontFamily=Architects Daughter;fontSource=https%3A%2F%2Ffonts.googleapis.com%2Fcss%3Ffamily%3DArchitects%2BDaughter;fontSize=16;" parent="1" source="oeUzojhHNhMkXYqDH8_7-52" target="oeUzojhHNhMkXYqDH8_7-26" edge="1">
          <mxGeometry relative="1" as="geometry" />
        </mxCell>
        <mxCell id="oeUzojhHNhMkXYqDH8_7-72" style="edgeStyle=orthogonalEdgeStyle;rounded=0;sketch=1;hachureGap=4;jiggle=2;curveFitting=1;orthogonalLoop=1;jettySize=auto;html=1;entryX=0.5;entryY=0;entryDx=0;entryDy=0;fontFamily=Architects Daughter;fontSource=https%3A%2F%2Ffonts.googleapis.com%2Fcss%3Ffamily%3DArchitects%2BDaughter;fontSize=16;" parent="1" source="oeUzojhHNhMkXYqDH8_7-52" target="oeUzojhHNhMkXYqDH8_7-30" edge="1">
          <mxGeometry relative="1" as="geometry" />
        </mxCell>
        <mxCell id="oeUzojhHNhMkXYqDH8_7-52" value="Maven" style="rounded=1;whiteSpace=wrap;html=1;sketch=1;hachureGap=4;jiggle=2;curveFitting=1;fontFamily=Architects Daughter;fontSource=https%3A%2F%2Ffonts.googleapis.com%2Fcss%3Ffamily%3DArchitects%2BDaughter;fontSize=20;arcSize=50;" parent="1" vertex="1">
          <mxGeometry x="-1070" y="2465" width="104" height="46" as="geometry" />
        </mxCell>
        <mxCell id="oeUzojhHNhMkXYqDH8_7-74" style="edgeStyle=orthogonalEdgeStyle;rounded=0;sketch=1;hachureGap=4;jiggle=2;curveFitting=1;orthogonalLoop=1;jettySize=auto;html=1;exitX=1;exitY=0.25;exitDx=0;exitDy=0;exitPerimeter=0;entryX=0.5;entryY=0;entryDx=0;entryDy=0;entryPerimeter=0;fontFamily=Architects Daughter;fontSource=https%3A%2F%2Ffonts.googleapis.com%2Fcss%3Ffamily%3DArchitects%2BDaughter;fontSize=16;" parent="1" source="oeUzojhHNhMkXYqDH8_7-38" target="oeUzojhHNhMkXYqDH8_7-38" edge="1">
          <mxGeometry relative="1" as="geometry" />
        </mxCell>
        <mxCell id="oeUzojhHNhMkXYqDH8_7-75" value="Yes" style="ellipse;whiteSpace=wrap;html=1;sketch=1;hachureGap=4;jiggle=2;curveFitting=1;fontFamily=Architects Daughter;fontSource=https%3A%2F%2Ffonts.googleapis.com%2Fcss%3Ffamily%3DArchitects%2BDaughter;fontSize=20;" parent="1" vertex="1">
          <mxGeometry x="-785" y="2429" width="43" height="29" as="geometry" />
        </mxCell>
        <mxCell id="oeUzojhHNhMkXYqDH8_7-77" value="No" style="ellipse;whiteSpace=wrap;html=1;sketch=1;hachureGap=4;jiggle=2;curveFitting=1;fontFamily=Architects Daughter;fontSource=https%3A%2F%2Ffonts.googleapis.com%2Fcss%3Ffamily%3DArchitects%2BDaughter;fontSize=20;" parent="1" vertex="1">
          <mxGeometry x="-889" y="2545" width="58" height="34" as="geometry" />
        </mxCell>
        <mxCell id="oeUzojhHNhMkXYqDH8_7-84" style="edgeStyle=orthogonalEdgeStyle;rounded=0;sketch=1;hachureGap=4;jiggle=2;curveFitting=1;orthogonalLoop=1;jettySize=auto;html=1;entryX=-0.001;entryY=0.604;entryDx=0;entryDy=0;entryPerimeter=0;fontFamily=Architects Daughter;fontSource=https%3A%2F%2Ffonts.googleapis.com%2Fcss%3Ffamily%3DArchitects%2BDaughter;fontSize=16;" parent="1" source="oeUzojhHNhMkXYqDH8_7-83" edge="1">
          <mxGeometry relative="1" as="geometry">
            <mxPoint x="-652.1280000000002" y="2488.3120000000004" as="targetPoint" />
          </mxGeometry>
        </mxCell>
        <mxCell id="oeUzojhHNhMkXYqDH8_7-83" value="Tests" style="ellipse;whiteSpace=wrap;html=1;sketch=1;hachureGap=4;jiggle=2;curveFitting=1;fontFamily=Architects Daughter;fontSource=https%3A%2F%2Ffonts.googleapis.com%2Fcss%3Ffamily%3DArchitects%2BDaughter;fontSize=20;" parent="1" vertex="1">
          <mxGeometry x="-757" y="2457" width="61" height="62" as="geometry" />
        </mxCell>
        <mxCell id="oeUzojhHNhMkXYqDH8_7-85" value="New Image&lt;br&gt;Pushed to &lt;br&gt;Self-hosted&lt;div&gt;Nexus Registry&lt;/div&gt;" style="text;html=1;align=center;verticalAlign=middle;resizable=0;points=[];autosize=1;strokeColor=none;fillColor=none;fontSize=20;fontFamily=Architects Daughter;" parent="1" vertex="1">
          <mxGeometry x="-678" y="2530" width="158" height="108" as="geometry" />
        </mxCell>
        <mxCell id="oeUzojhHNhMkXYqDH8_7-88" style="edgeStyle=orthogonalEdgeStyle;rounded=0;sketch=1;hachureGap=4;jiggle=2;curveFitting=1;orthogonalLoop=1;jettySize=auto;html=1;fontFamily=Architects Daughter;fontSource=https%3A%2F%2Ffonts.googleapis.com%2Fcss%3Ffamily%3DArchitects%2BDaughter;fontSize=16;" parent="1" source="oeUzojhHNhMkXYqDH8_7-86" edge="1">
          <mxGeometry relative="1" as="geometry">
            <mxPoint x="-205.11764705882342" y="2488" as="targetPoint" />
          </mxGeometry>
        </mxCell>
        <mxCell id="oeUzojhHNhMkXYqDH8_7-86" value="" style="shape=image;verticalLabelPosition=bottom;labelBackgroundColor=default;verticalAlign=top;aspect=fixed;imageAspect=0;image=https://argo-cd.readthedocs.io/en/stable/assets/logo.png;" parent="1" vertex="1">
          <mxGeometry x="-332" y="2453" width="70" height="70" as="geometry" />
        </mxCell>
        <mxCell id="oeUzojhHNhMkXYqDH8_7-89" value="Argo CD" style="text;html=1;align=center;verticalAlign=middle;resizable=0;points=[];autosize=1;strokeColor=none;fillColor=none;fontSize=20;fontFamily=Architects Daughter;" parent="1" vertex="1">
          <mxGeometry x="-340" y="2523" width="99" height="36" as="geometry" />
        </mxCell>
        <mxCell id="oeUzojhHNhMkXYqDH8_7-93" style="edgeStyle=orthogonalEdgeStyle;rounded=0;sketch=1;hachureGap=4;jiggle=2;curveFitting=1;orthogonalLoop=1;jettySize=auto;html=1;fontFamily=Architects Daughter;fontSource=https%3A%2F%2Ffonts.googleapis.com%2Fcss%3Ffamily%3DArchitects%2BDaughter;fontSize=16;" parent="1" source="oeUzojhHNhMkXYqDH8_7-90" edge="1">
          <mxGeometry relative="1" as="geometry">
            <mxPoint x="-363.9411764705883" y="2293.205" as="targetPoint" />
          </mxGeometry>
        </mxCell>
        <mxCell id="oeUzojhHNhMkXYqDH8_7-90" value="" style="shape=image;verticalLabelPosition=bottom;labelBackgroundColor=default;verticalAlign=top;aspect=fixed;imageAspect=0;image=https://argocd-image-updater.readthedocs.io/en/stable/assets/logo.png;" parent="1" vertex="1">
          <mxGeometry x="-628.71" y="2259" width="68.41" height="68.41" as="geometry" />
        </mxCell>
        <mxCell id="oeUzojhHNhMkXYqDH8_7-92" style="edgeStyle=orthogonalEdgeStyle;rounded=0;sketch=1;hachureGap=4;jiggle=2;curveFitting=1;orthogonalLoop=1;jettySize=auto;html=1;entryX=0.449;entryY=-0.012;entryDx=0;entryDy=0;entryPerimeter=0;fontFamily=Architects Daughter;fontSource=https%3A%2F%2Ffonts.googleapis.com%2Fcss%3Ffamily%3DArchitects%2BDaughter;fontSize=16;" parent="1" source="oeUzojhHNhMkXYqDH8_7-91" edge="1">
          <mxGeometry relative="1" as="geometry">
            <mxPoint x="-594.5280000000002" y="2409.464" as="targetPoint" />
          </mxGeometry>
        </mxCell>
        <mxCell id="oeUzojhHNhMkXYqDH8_7-91" value="Image updater" style="text;html=1;align=center;verticalAlign=middle;resizable=0;points=[];autosize=1;strokeColor=none;fillColor=none;fontSize=20;fontFamily=Architects Daughter;" parent="1" vertex="1">
          <mxGeometry x="-668" y="2329" width="148" height="36" as="geometry" />
        </mxCell>
        <mxCell id="oeUzojhHNhMkXYqDH8_7-94" value="Updates with new Image" style="text;html=1;strokeColor=none;fillColor=none;align=center;verticalAlign=middle;whiteSpace=wrap;rounded=0;fontSize=20;fontFamily=Architects Daughter;" parent="1" vertex="1">
          <mxGeometry x="-535" y="2235" width="113" height="30" as="geometry" />
        </mxCell>
        <mxCell id="nn-kzN1BCgbN5qy_RMVw-4" value="" style="shape=image;verticalLabelPosition=bottom;labelBackgroundColor=default;verticalAlign=top;aspect=fixed;imageAspect=0;image=data:image/png,iVBORw0KGgoAAAANSUhEUgAAAQAAAAEACAYAAABccqhmAAAACXBIWXMAAAsTAAALEwEAmpwYAAAZ3ElEQVR4nO3dbXRU9Z0H8O/vziQQHgQfMHXmZmbAAJm5QNHUqrXbYkt3FZK19izdfSHuqe2xRz2QQIJURQk+gjwlWlftgz2inrMHPadHE1EPrdjaahelWkiYBIPkAaIsiKXIUzJzf/siZIsWMWTunf+9//v7vPFNcufrkPnmzp3vTAhCe5FYciYRXb2nc3vNYL6+rHHRPwPZ2b3DC+56/zsrDrqdT6hjqA4g3BOdUDbJjFtNBtFGAlKD/T4iLiCi+cOOZ3YmG2uqsH5OyM2cQh0pAA0lEtPHmonkcsoaWwGencOhzgWhPjmiZLPVWPN1xwIKz5AC0IsRjSWvz3BvG5gWAxjmzGHpYpvwerKxpjH5Yk3cmWMKL5AC0ISZKPumGU9tIaInAZzvyo0QKsC8PdVYW2euX1Dkym2IvJIC8LlodJppxq11YGMTgOnu3yKNYOKlo0YYO5KNC68Hg9y/TeEWKQCfikTKR5iJVB2FszsAngvk94FIgAmiJ5MbajdZjQu/nM/bFs6RAvChSMyqNAqObgdjKcBqT8WZv2kT/TnZWLNu2iu17jz1EK6RAvCRSDx5cTSeet0gfgGAly7GGSDM7evjtmRT7WJrfV2h6kBicKQAfCASmXSemUg1GDA2E+Dll+PGArzcHnFoW7Jx4SzVYcQXkwLwsPLy8gIzlqwyCsI7wZgPsF8GOZNA9GKyqWajtaFm0AMkkX9SAB4ViSVn7t1/9F0Q1QM4S3WeIZpp23i3rHFhQ+mGeX79f9CaFIDHRMZPnmzGUy8aRBtxBvNdDysgovkFdqHMij1ICsAjYrGpZ5uJ5HLDDm0FoOPz5/NkVuw9UgDqGdFY8nqbsq0n5ruaX0Gni23C75NNtetlVqyeFIBCZmLKDDOefMfV+a43EcBzBmbFiU11w1UHCiopAAUiF04p6Z/v2psAmqY6jzr9s+Lhhw+9l2xceL3qNEEkBZBHA/NdI2MPzHcFTpoVN9XIrDjPpADyg6Kx1Byj4Gi6f74LOeU9tRkyK84vKQCXxWJl5SXx1OtEWA8gpjqPDwzMiltlVuw+KQCXxOPJC8xE6nGbjM0MXKE6jw+dDfByu+jQVpkVu0cKwGED890sqBWMGyH3cW4IkwdmxVOaqpOq4+hGfjgdFIlZlXv3H037fL7rVTOzCP1FZsXOkgJwQCQxtcyMpzaceJvuharzaGxgVtxa1lRzI+rq5Oc3R3IH5qB/vptqMDi7DcDVqvMEyAUEPJ78yqHNkzcskusrOZACGJIZYTNm3WiT3db/Nl2EVScKqHLDtl9PNtWutxoXyyssQyAFcIaicetKM753C4gfB3ic6jyif1ZsU19aZsVnTgpgkAbmuwR+NdjzXa/qnxUXHTm0Q2bFgycF8AWKi6eNlPmujzBKQPRkqqnm1cnP10pRfwEpgM9H0VhqTsGwjMx3fYiBK40Qv5NsrFlXumGePFX7HFIAp1BSMuUrZjz5ByKsB6FEdR4xZAYIcwvsQvm04s8hBXAS05wUNeOpp9iwNwP0NdV5HMaD/0p78F/rD2ef+LTiLcmm2pmqw3iJFAAAy7IKzViyCqFwGsB1yPNf2XEZE+HZrME3DfYb0lvOehnM/wlgr4u5VJgC8MZkY03jlA2LZLAFvX7QhyQSsyoN4noAE1RncR5tsRlVPV0tfxzKd097pXZkpheLmPgncOwvDXtGHzM/mgn13dk+6+G/qQ6jSmALIJKYWmbY2XoQ/kV1Fhd8AKa63V0tvwBg53qwZOOiiSC+D+A5DmTzmg8YqGt9e/QvUFeX833lN4ErANO0zkGYl4JxM/Rb8PWB8OjwcO+d7e3tjv9W63/+zGsBTHH62B6wxTaMqrZZK4d0tuRXASqAGWEztu+G/t9kOE91GudxE9mh6u7u5p1u3kr52zcWHP5w9A8I0PF+ZICeMzhU21K5okt1mHwIRAFEY6lvk0FrwTxVdRbnURvAC3Z3bn8pn7dqvbzgnGwfLSWiWwBo9sc++AixsfLIqFHLO66sO6Y6jZu0LgDTtEopzPczQ8fnrh+DacWY0Vjb0tLSqyqE9eKi6TbbDQC+oSqDawjdsHlJunLNOtVR3KJlARQXTxtZUJRZBIaOV69tgJ7JFByv+bC9fZ/qMAPKGmsribgBwHjVWZxGwKZslqrbrlm1VXUWp+lWABSNJecS0QoAX1IdxgWbYBjVu3c1e/IH0Vy/oGj0iNB8gO8AMFp1HofZYDzTF+qtaZ/1sGeKN1faFEBJiXUJG2gA+HLVWRzH6Gbwkj1daV+cik5qXBANwXgApN2oCgA+BmNZ8ajRj7x2ZV1GdZhc+f4fxzQnRREqeABgHX/YjoCwMowjyzs6Onx3McpqXPBVG0YDCJepzuI0AlphYOH2WavzevHVab59wJimWQRjzHyQlqebTITnsgbV9rzf4u+XoxiUbFo4F7o+LWM0Zcmu2lGx9n3VUYbClwXQP99FA8DaXXAC+G0boaqezuY3VCdxkuaz4l5mfsyPs2JfFUA0YU0nmxtAGr7k5PB816tkVuwtviiAv8936RaANRudoBeEx9ya73pVqnHht7n/7ydoOCumtxl2VWvFGs+fxXm6AMrLywv27jv2A53nuwaHq7q6tvny+WOuZmyqC394+NANMitWx7MFEIklZxr9vyEs1Vlc0AqiBbs7Wl5WHcQL9J4V4zAxrfLqrNhzBWCayYkUpvv0ne/yst1dxY8Ar/n+NWSnTWmqTtoIrWVo+BZtj86KPVMA48ZZo4aN5FpN57sZEJ7IhHuXeGm+61U6z4qZ8SoMu7p19tptqrMA3igAIxpLXgeiBwkoVh3GBa8ia1fv3t3qiX9wv9B8Vpwh4Ileo3eJ6lmx0gIwx1tfhc0NgH5LMQA7mXHbnq7tz6oO4meTn781YhjZ5TIrdoeSO1Tz+e5hEFb5db7rVdYLNZfYBhoAaPdeDwJaiewFLbPX5v2icF4ffCfNd5cAGJXP286D/vluyKjp2dncrTqMlmRW7Li8FUAkZlUS8UMEJPJ1m/mj53zXq4IwK2Y7vKTtmgcPuX1jrhdAJJ66yCA0gPFPbt+WAj1gWqb7fNerrOcXlNqh0P2azop7GFjm9qzYtQKIRsvOpQLjLp3nu8eGZZfsb2tzvaXF6cmsOIejO33A/vnukZtBxjKAxzh9fPWCPd/1qiDMikMZu6b5u2scvb7kaAHoPt8lourujpZXVAcRn690w7xxYXvYPQT+EfSaFX/EQE1rxeonnTyoIwUQnVA2ibK0GqAKJ47nMQfAfLfMd/1Fo1mxq6OhnApgwoQJY/oyRXVMfAuAAocyeUUGhP8y7FBdV9e2j1WHEUPj51lxPmbDORVANJaaQ4T1ToXxkN8iay+Q+a4erPV1hXbRoZtAuAf+mBW3E/j27RVrXF+RSgF8Wjszbpf5rp58MCvO+1uHpQD6HQZh1fBw7wPt7e3HVYcR7vLgrJjBeNowjFtbZq/8MJ83HPQCYICeDhNu7ehoyesdLxTzyKyYCW/BpqrWylVvqrj94BYA4S1mu2pPZ6uSO154g8JZcQ+Yb0tXrHkKBM7j7X5KEAugh5lv29OVfgpQd8cLb8njrPgowA/Z2fB9+dj6f5EAFQAdZdirMscKVuzdu/Ww6jTCm6wNtd+yba4H4Pyfkmc02Uzz2/511S6HjkilpaWjc/k0acOhIB7HTSFkrD2d6bvkwS9Op2XWqleLR46+mIEfA9jvzFEpzcBV6crVlU49+GOxsvKSeOr1o72FOQ2dtC4ABtJEdNXuznRlZ2ebU60rNPfalXWZ1orVPzPC9mRmfghAdoiHOgBGdfpI59TWitWOTMjj8eQFZiL1uE3GZgauyPV4YSdCedABMN+9pyv9Uwz9H08EXMtVaw8AqJrSVP3YGc6K+wj4VYZxx47K1Y6cRQy8yS4LuhuMs5w4JqBfAWRAeMLuzdzR07PDodM3EXTNFfVpAFeVNdZWGsT1DEw4zZf/BqAF2ytWNTt1+5GYVbl3/9G1ILrQqWMO0KkAfks2V3d3px2744U4WWvlqkZrfd0rfOpZ8XsEvsPJ+W4kMbXM4OwagK926pif5f8CYLzHwB0y3xX50PL9ul4ADZOfv/XZUCi7lIH/IKa1vaHjD7TPetiRFWksNvVs28jWgbM3w+XHqJ8LoH++WyDzXZF/bdc82APgx6Ub5s136oEPzAibsX032GTfC8Y4Z455en4sAAbo6QKDFu3a1bxXdRgRbE49+KNx61tE++rB7Pz+4DR8VgD8hsE8v6urdYvqJEI4oaRkyoVM9mqAr1GxS/VVARhsLO7qapEHv/C94uJpIwuKMouY7cUAhqvK4asCEEIDFI0l5xJlVoDV/3ETKQAh8qSkxLqEDTQA7JXPIZACEMJtJSWTI2yEl7MH/xamFIAQLrEsq/DgIfsmJroHYE9+FqEUgBAuiMSsyoOfoAFEnv40YikAIRyUSFhfyjD+G+Bvqs4yGFq/HViIfLNtlPrlwQ9IAQgRaFIAQgSYFIAQASYFIESASQEIEWBSAEIEmBSAEAEmBSBEgMkSUDhm+q+rx/aGjXLboEuI8WUAJoBiIn5u++w1t6vOJ/6RFIAGJjUuiIYolMz5QIb9SXrWmj+dybeUvVSdIDt0LZivPQ76GoAQfeaTbZhRlHM24QopAA2EDONqMP885wPZtA3AtMF8qdVY83WbaD6y/D0AIY+9y1UMkhSAOCNljbUziOzVNnCx/HFl/5MCEINy4lR/LZi/K7/t9SEFIL5QqmnhHM7S4wDOVp1FOEsKQHyuxKa64UVHPnmcma9XnUW4QwpAnNL0X1ePPX740PMAvqE6i3CPFID4B8mXqy84ngltBGCpziLcJUtA8SmlG+adhb7Qi5AHfyBIAYiTDS/gYS+AcJHqICI/5CmAONlEME9UHULkj5wBCBFgUgBCBJgUgBABJgUgRIBJAQgRYPIqgMhFB4DNAG8FjJ0g/siG/TGxwQbzWJtoDIEmMnG76qDi1KQAxJl6D6BfhpB5obmiPq06jMiNFIAYrDeZjbrWipUbQfJBALqQAhCnR+gm0Lzts1c9rzqKcJ4UgDidJ48Xhqve/86Kg6qDCHdIAYhTyQJ0R7pi1QrVQYS7pADEZx0H8/fSlas3qA4i3Cc7AHGyPiL693TlGnnwB4QUgDhZq1zsCxYpACECTApAiACTAhAiwKQAhAgwKQAhAkwKQIgAkwIQIsCkAIQIMCkAIQJMCkCIAJMCECLApACECDApACECTApAiACTAhAiwKQAhAgwKQAhAkwKQIgAkwIQIsCkAIQIMCkAIQJMCkCIAJMCECLApACECDApACECTApAiACTAhAiwKQAhAgwKQAhAkwKQIgAkwIQIsCkAIQIMCkAIQJMCkCIAJMCECLApACECDApACECTApAiACTAhAiwKQAhAgwKQAhAkwKQIgAkwIQIsCkAIQIsLDqACJ3Wdt+KUSh7+R8IMP+xIE4wkekADSwo3LtHgB7VOcQ/iNPAYQIMCkAIQJMCkCIAJMCECLApACECDApACECTApAiACTAhAiwKQAhAgwKQAhAsxXBWAT6iMx6wrVOYQ4lUjMusIm1KvOcSZ8VQAAlxvEfzDjycZEoiyhOo0QAGCak6Jm3FpnEL8OcLnqPGfCZwUwgCoybLSYieTyceOsUarTiGAyTbPIjFmLEQqnAZ4LgFRnOlM+LQAAwAgwLR42Aq3RWPJ6+PDOF/4ViVmVCI1pAfFyAKNV5xkqPxfACRwloifNeOpNM5G6VHUaobdIPHWRGUv9ziB+AeDxqvPkSoMC+H+XgvGGGbfWjR8/pVh1GKEX07TOMROpBgP0FgjfUJ3HKToVAAAYAM/ts+12M5GqKy0tHaY6kPC38vLyAjOWrEKId4IxH+CQ6kxO0q0ABowCY+mx3sJt0Vhqjuowwp8iseTMvfuPvgOiegBjVedxg64F0I8wkQjrS+KpjbFYylIdR/iDaSYnmvFko0G0EYDWPzd6F8AJDMy0Ce+YiVRDIjFdyyYXuRs3zhplJlJ1CNE2gCpU58mHQBTACQVgzM9w704zlqwCoNVzOZETIxpLXl84gtvBWAogMNeOglQAA84BUb0ZT71VMj6pzdVcMTRmInWpGU+9QURPEhC4V4+CWAADLmKbfmfGk43x+GTfv54rzkw0Os0049Y6MN4EENj9SJAL4ASqyCLcYiaSy8+bPNm3iy4xOJFI+QgzZi2mcMa3810nSQEAALgITIuHHwunZVasr0jMqqSCowPzXXkPCaQAPuPErDiR+p9oInmZ6jTCGZF48mIzkfq9QfwCAQnVebwkpyvhk0pj7x0+3PcRyLgcwHCHMnlBlEA/PGvs+Reec/b5b/71r/vkb+b5UDRadu6Yc89fTjB+Dv0e+IdBeKCooPeXBw4cyA71II6c6kajZedSgXEXmG7RbSqJ/jt61fBw7wPt7e3HVYcRX6y8vLxg774jN4OMZQCPUZ3HYQzQ02HCrR0dLR/mejBHn+tG4qmLDEIDGP/k5HE9op0Zt+/p2v6s6iDi80ViyZkGUQOAlOosjmNsZoOr9nSk/+TUIV252BWJWZVE/JCmz7d+SzZXd3enm1UHEX8XnVA2ibKhNQDPVp3FebSH2b59T1f6KQDs6JGdPNjJIpHyEUb42DwQL4F+V1wzIDxh92bu6OnZsV91mCBLJKaPzeD4T8C0AECh6jzOoqMg+6Fjw+z79re1HXLlFtw46Mmi0WkmhbP3A3xdPm4vzw6A+e7dXemfAhjyhRgxJEY0lryOiFYCOF91GOdxUwj2/M7Otl1u3kreHpBmInUpGA3QcHXFQNogWtDd0fKK6ixBYCamzADb9QC+rDqLC94lg6u6d6V/n48by/dvZCMaS14Hogf13F1zk8Hhqq6ube+rTqIjOZt0npI78aTnbdXQ751XvSA8dmxYdolbz9uCJhIpH2EUHr0VTLcCXKQ6j8P6QPiVqutJSlu0/8otrdb0vdc9YFq2u6vlFwBs1WF8iqKx1L8RYSWAuOowLlD+ipInTqNOvHZbDy0/fYXfthGq6ulsfkN1Ej+JxcrKmYwGBvT7S1CM9xi4wwubEk8UAKD/eosIz2VDRk3PzuZu1WG8LB5PXpAlqgPTD2VV6j7PFMCAIMyKwziyvKOj45jqMF7y918AdDeAs1TncRgD9HSBQYt27WreqzrMyTxXAAM0nxXvZMZtXjgF9IJILDmTiB4iIKk6i+NcmO86ybMFMEDzWfGrMIwFu3c1b1UdRIXI+MmTDTu0BsAs1Vmc595810meLwCg/48wwhgzX+dZcSbcu+TD9vZ9qsPkQyw29WzbyCzWeb57/LBx7759LZ5/G7kvCmCAaU6KIlTwgKZDkI/BvGx3V/EjwGsZ1WFccmK+a6wCeJzqMM7Lz3zXSb58EOk8KwbQCmDh7s7tL6kO4qRo3LqSYNcDNE11Fhfkdb7rJF8WwAnaz4rJDlV3dzfvVJ0kF5ELp5QYGb7vxAdw6sb3bwbzcwEA0H5W3AfCo8PDvXe2t7f/TXWYM1FcPG1kQVFmERiLodfHxQGK57tO8n0BDDDN5ESEsEbTWfEHYKrzyax4YL67CkBMdRinEfAbYlR3dW1vUZ3FCdoUwAC9Z8W0xWZU9XS1/FF1klMpKZnyFTayDQB9TXUWx3lovusk7QoACMis2KDanvdbulSHAYCSkskRDoWWgvEj6PdR856b7zpJywIYoPms+AgIK1XOii3LKjx4yL5J0/muDdAzXpzvOknrAhig9ayY0c3gJXu60uvyebORmFVpENcDmJDP280Lj893nRSIAhig96yYX4MRqnJ7VhxJTC0zOLsWwFVu3o4a/pjvOilQBQBoPyu2AXqmLxyq3btz6/86eWDTtM5BmJeCcTOAsJPHVs9f810nBa4ABug/K6YVY0ZjbUtLS29uh5oRNmP7bgDhXpnv6ke3H/wzZo63vgqbH4KWs2JqA+yFuzvTG4by3dG49S0i1IN5qtPJPOAdMrjaj/NdJwW+AE7QelbcP16hqq6ulu2D+XrTtEopzPczY47b2RTw/XzXSVIAJxk3zho1bCTXgvETBHBWHID57qNhFC7t6Hj3r6rDeIUUwCloPiveD+Z7P/MbkKKx5FwiWgHgSwqzuUK3+a6TpABOQ+dZMQF/JqYqZhxnAw0AX646k+M0ne86SQrgC1iWVfi3T3geg+7UcVZ84r+a/RzQQQLfc9Yoejj3V0H0ptk/vHs0nxXrIhDzXSdJAZwhrWfFfhag+a6TpACGSO9ZsZ8Eb77rJDmVHaJDB/ftGDN62M9Aww+BcBm0+3Rbr6OjIF5z/Ah9/8MPtr+lOo1fyRmAAzSfFXsQN4WJ53V0tHaoTuJ38sPqIL1nxZ4g812HSQE4T+tZsSIy33WJXANwHh86uP8vwwvPfyxciD4Al0O7t8/mTR8Ij4Sp8NquzubfQS7yOU7OAFym+azYNTLfzQ8pgDzReVbsKJnv5pVun+DqWT1d6d8Un1d0EZirATqoOo8HfQLCsuGFvVPlwZ8/cgaggMyKP0XmuwpJASgUiacuMhj1IHxDdRYlZL6rnBSABwRvVizzXa8I+umnJwRnVizzXa+RMwCP0XdWLPNdL9LoB0wvJ2bFDQAuU50lRzLf9TApAG/z86z4IzDfI/Ndb5NrAN7mx1lxHwiPFIaOXdvZ8Z7Mdz1OzgB8xOuzYpnv+o8UgA95blYs813fkimwD3loVizzXZ+TMwCfUzQrlvmuJqQANJG3WbHMd7UiBaAZ92bFMt/VkbwMqBnnZ8Uy39WZnAFoLPdZscx3dScFEABDmBXLfDcgpACCYzCzYpnvBoxcAwiO082KZb4bUP8HFCPmJjPObacAAAAASUVORK5CYII=;" vertex="1" parent="1">
          <mxGeometry x="-652" y="2417.5" width="105.5" height="105.5" as="geometry" />
        </mxCell>
      </root>
    </mxGraphModel>
  </diagram>
</mxfile>
